<svg width="2000" height="1400" xmlns="http://www.w3.org/2000/svg"><defs><linearGradient id="a" gradientTransform="rotate(90)"><stop offset="5%" stop-color="#121212"/><stop offset="95%" stop-color="#4d4d4d"/></linearGradient><linearGradient id="b" gradientTransform="rotate(90)"><stop offset="5%" stop-color="#161616"/><stop offset="95%" stop-color="#505050"/></linearGradient><linearGradient id="c" gradientTransform="rotate(90)"><stop offset="5%" stop-color="#191919"/><stop offset="95%" stop-color="#525252"/></linearGradient><linearGradient id="d" gradientTransform="rotate(90)"><stop offset="5%" stop-color="#1d1d1d"/><stop offset="95%" stop-color="#555"/></linearGradient><linearGradient id="e" gradientTransform="rotate(90)"><stop offset="5%" stop-color="#202020"/><stop offset="95%" stop-color="#575757"/></linearGradient><linearGradient id="f" gradientTransform="rotate(90)"><stop offset="5%" stop-color="#232323"/><stop offset="95%" stop-color="#5a5a5a"/></linearGradient><linearGradient id="g" gradientTransform="rotate(90)"><stop offset="5%" stop-color="#272727"/><stop offset="95%" stop-color="#5d5d5d"/></linearGradient><linearGradient id="h" gradientTransform="rotate(90)"><stop offset="5%" stop-color="#2a2a2a"/><stop offset="95%" stop-color="#5f5f5f"/></linearGradient></defs><path fill="#0f0f0f" d="M0 0h2000v1400H0z"/><path d="M0 155c117.509-12.426 235.018-24.852 340-21 104.982 3.852 197.437 23.982 305 31 107.563 7.018 230.234.925 344-2 113.766-2.925 218.628-2.68 326-6 107.372-3.32 217.254-10.201 343-13 125.746-2.799 267.356-1.514 327 1 59.644 2.514 37.322 6.257 55 10l-40 1245H0Z" fill="url(#a)"/><path d="M0 311c104.535 9.35 209.07 18.7 324 17 114.93-1.7 240.257-14.45 359-17 118.743-2.55 230.904 5.101 339 1s212.129-19.955 318-18c105.871 1.955 213.58 21.719 333 21 119.42-.719 250.548-21.92 307-26 56.452-4.08 38.226 8.96 60 22l-40 1089H0Z" fill="url(#b)"/><path d="M0 466c116.777 5.303 233.555 10.605 346 9 112.445-1.605 220.559-10.119 332-16s226.21-9.131 336-8c109.79 1.131 214.604 6.643 311 3 96.396-3.643 184.376-16.442 317-10s309.893 32.126 377 39c67.107 6.874 24.054-5.063 21-17l-40 934H0Z" fill="url(#c)"/><path d="M0 622c124.84-7.42 249.68-14.842 355-9 105.32 5.842 191.121 24.946 296 26 104.879 1.054 228.835-15.941 351-18 122.165-2.059 242.54 10.82 352 18 109.46 7.18 208.009 8.664 325 4 116.991-4.664 252.426-15.475 309-20 56.574-4.525 34.287-2.762 52-1l-40 778H0Z" fill="url(#d)"/><path d="M0 777c104.064 4.976 208.128 9.951 317 12 108.872 2.049 222.551 1.17 340 5 117.449 3.83 238.667 12.366 355 6s227.78-27.634 339-31c111.22-3.366 222.213 11.17 338 10s236.368-18.049 289-21c52.632-2.951 37.316 8.024 62 19l-40 623H0Z" fill="url(#e)"/><path d="M0 933c120.702-4.045 241.403-8.09 344-5 102.597 3.09 187.088 13.317 298 19s248.244 6.821 361 6c112.756-.821 200.935-3.602 307-6s230.018-4.415 365-12 280.995-20.739 337-22c56.005-1.261 22.003 9.37 28 20l-40 467H0Z" fill="url(#f)"/><path d="M0 1088c113.443 11.097 226.886 22.194 340 19 113.114-3.194 225.899-20.68 334-31s211.519-13.472 319-5 219.026 28.57 324 35c104.974 6.43 203.378-.807 333-10s290.464-20.34 354-22c63.536-1.66 29.768 6.17 36 14l-40 312H0Z" fill="url(#g)"/><path d="M0 1244c113.495-1.419 226.99-2.838 338-8 111.01-5.162 219.533-14.069 335-7 115.467 7.069 237.876 30.112 351 30 113.124-.112 216.961-23.38 315-31 98.039-7.62 190.28.41 318 3s290.92-.26 354 1c63.08 1.26 26.04 6.63 29 12l-40 156H0Z" fill="url(#h)"/></svg>